<?xml version="1.0" standalone="no"?>
<!DOCTYPE svg PUBLIC "-//W3C//DTD SVG 20010904//EN"
 "http://www.w3.org/TR/2001/REC-SVG-20010904/DTD/svg10.dtd">
<svg version="1.0" xmlns="http://www.w3.org/2000/svg"
 width="1600.000000pt" height="779.000000pt" viewBox="0 0 1600.000000 779.000000"
 preserveAspectRatio="xMidYMid meet">
<metadata>
Created by potrace 1.14, written by Peter Selinger 2001-2017
</metadata>
<g transform="translate(0.000000,779.000000) scale(0.100000,-0.100000)"
fill="#0072b9" stroke="none">
<path d="M6125 7768 c-8 -35 -175 -820 -175 -824 0 -2 1114 -4 2475 -4 l2475
0 5 23 c2 12 41 193 85 402 45 209 83 390 87 403 l5 22 -2476 0 -2476 0 -5
-22z"/>
<path d="M5835 6378 c-16 -73 -56 -263 -90 -423 -34 -159 -60 -293 -58 -297 2
-5 1115 -8 2473 -8 2342 0 2469 1 2474 18 3 9 32 148 66 307 57 271 78 370
101 472 5 23 9 47 9 52 0 8 -742 11 -2474 11 l-2473 0 -28 -132z"/>
<path d="M1360 5280 c-469 -49 -847 -285 -1001 -625 -67 -148 -97 -357 -70
-487 33 -156 150 -289 324 -368 90 -40 125 -51 506 -156 416 -114 452 -133
476 -241 18 -85 -47 -241 -127 -304 -96 -75 -264 -111 -426 -89 -133 17 -217
64 -259 143 -22 43 -33 135 -24 200 l8 57 -368 0 c-340 0 -367 -1 -374 -17 -4
-10 -10 -83 -12 -163 -4 -111 -1 -161 11 -213 51 -216 220 -372 484 -448 140
-40 267 -53 502 -53 237 1 377 17 548 65 395 110 683 367 776 690 105 365 31
598 -232 732 -114 58 -207 89 -561 187 -162 45 -316 90 -343 102 -58 25 -113
83 -129 137 -10 33 -10 53 0 99 25 111 91 189 210 246 63 30 71 31 196 31 115
0 135 -3 171 -22 55 -29 101 -84 111 -130 9 -44 9 -139 -1 -177 l-6 -26 373 0
374 0 12 69 c6 39 11 114 11 168 0 172 -38 272 -144 379 -106 105 -230 162
-441 199 -107 19 -449 28 -575 15z"/>
<path d="M3156 5153 c-8 -38 -63 -293 -121 -568 -102 -483 -116 -549 -149
-700 -9 -38 -70 -326 -136 -640 -66 -313 -125 -589 -130 -612 -6 -23 -10 -47
-10 -52 0 -8 307 -11 1009 -11 953 0 1010 1 1015 18 3 9 26 116 51 237 26 121
49 228 51 238 5 16 -30 17 -640 17 -573 0 -646 2 -646 15 0 9 25 134 55 278
30 144 55 265 55 269 0 5 269 8 598 8 l597 0 34 158 c19 86 42 193 52 237 11
44 19 88 19 98 0 16 -35 17 -593 17 l-594 0 43 203 c24 111 51 235 59 275 l16
72 633 0 633 0 18 88 c10 48 33 157 51 242 19 85 34 160 34 167 0 11 -191 13
-994 13 l-994 0 -16 -67z"/>
<path d="M5537 4948 c-122 -577 -209 -988 -237 -1118 -16 -74 -70 -328 -120
-565 -50 -236 -97 -459 -105 -495 -8 -36 -21 -96 -29 -133 l-14 -69 741 4
c792 5 825 7 1031 59 215 55 419 206 539 399 127 207 154 490 60 650 -65 110
-203 199 -377 242 l-86 21 113 38 c361 118 549 317 598 630 37 240 -92 445
-338 541 -160 62 -138 61 -963 65 l-756 4 -57 -273z m1208 -219 c117 -32 170
-131 145 -270 -22 -119 -91 -218 -184 -264 -64 -31 -197 -45 -448 -45 -150 0
-168 2 -168 17 0 16 105 521 116 556 5 16 26 17 252 17 147 0 263 -5 287 -11z
m-208 -1062 c66 -17 128 -58 153 -100 64 -104 14 -307 -100 -410 -61 -55 -130
-83 -242 -97 -94 -12 -485 -14 -491 -2 -4 6 117 589 128 621 7 19 475 9 552
-12z"/>
<path d="M8261 5183 c-5 -21 -12 -49 -15 -63 -3 -14 -46 -218 -96 -455 -50
-236 -97 -459 -105 -495 -8 -36 -55 -258 -105 -495 -50 -236 -97 -459 -105
-495 -40 -181 -125 -587 -125 -598 0 -9 84 -12 368 -12 l368 0 22 108 c11 59
30 150 42 202 27 125 45 209 76 355 13 66 37 176 52 245 l27 125 165 3 c370 7
440 -31 440 -239 0 -52 -5 -137 -10 -189 -26 -259 -30 -315 -37 -457 l-6 -153
396 0 397 0 0 168 c0 92 7 266 15 387 25 380 18 487 -36 585 -50 91 -164 145
-331 157 -84 6 -113 18 -65 27 203 41 326 83 432 147 222 134 345 377 345 678
0 253 -123 411 -371 478 -58 15 -147 17 -896 20 l-832 4 -10 -38z m1084 -453
c194 -22 265 -76 273 -208 11 -174 -72 -327 -213 -394 -59 -27 -76 -30 -237
-38 -223 -12 -385 -12 -392 -1 -3 5 10 85 30 177 80 384 97 459 101 467 6 11
334 8 438 -3z"/>
<path d="M10961 3900 c-440 -726 -801 -1323 -801 -1325 0 -3 165 -4 366 -3
l366 3 144 260 c135 244 146 260 176 267 46 10 1010 9 1026 -1 13 -8 19 -44
52 -311 5 -47 15 -115 21 -152 l11 -68 415 0 415 0 -5 23 c-3 12 -24 121 -46
242 -54 297 -192 1052 -297 1623 -47 257 -97 533 -111 615 l-26 147 -452 0
-452 0 -802 -1320z m1133 620 c9 -96 21 -215 26 -265 30 -285 62 -656 58 -660
-3 -3 -165 -4 -361 -3 l-356 3 302 557 c166 307 304 554 308 550 4 -4 14 -86
23 -182z"/>
<path d="M14006 5203 c-3 -10 -57 -263 -121 -563 -64 -300 -176 -828 -250
-1175 -163 -768 -185 -873 -185 -885 0 -7 354 -10 1009 -10 l1010 0 11 53 c6
28 30 142 54 252 l42 200 -643 3 c-619 2 -643 3 -643 21 0 15 58 302 100 498
l12 53 596 2 596 3 48 215 c26 118 50 232 53 253 l7 37 -597 0 c-563 0 -596 1
-591 18 3 9 28 125 56 257 28 132 53 248 56 258 5 16 44 17 638 17 l633 0 21
103 c12 56 35 169 52 250 16 81 30 150 30 152 0 3 -447 5 -994 5 -939 0 -995
-1 -1000 -17z"/>
<path d="M4897 1923 c-26 -120 -56 -261 -67 -313 -11 -52 -30 -146 -43 -208
l-24 -112 2475 2 2476 3 27 130 c32 151 54 254 74 345 38 172 75 352 75 360 0
6 -913 10 -2473 10 l-2473 0 -47 -217z"/>
<path d="M4676 848 c-8 -24 -35 -152 -96 -443 -33 -160 -65 -309 -70 -332 -6
-23 -10 -47 -10 -52 0 -8 742 -11 2473 -11 l2474 0 11 53 c91 426 162 767 162
780 0 16 -158 17 -2470 17 -1968 0 -2471 -3 -2474 -12z"/>
</g>
</svg>
