<?xml version="1.0" encoding="utf-8"?>
<!-- Generator: Adobe Illustrator 22.1.0, SVG Export Plug-In . SVG Version: 6.00 Build 0)  -->
<svg version="1.1" id="Layer_4" xmlns="http://www.w3.org/2000/svg" xmlns:xlink="http://www.w3.org/1999/xlink" x="0px" y="0px"
	 viewBox="0 0 536.9 128" style="enable-background:new 0 0 536.9 128;" xml:space="preserve">
<style type="text/css">
	.st0{fill:none;}
	.st1{fill:#FFC107;}
	.st2{fill:#0F9D58;}
	.st3{opacity:0.2;fill:#BF360C;enable-background:new    ;}
	.st4{opacity:0.2;fill:#263238;enable-background:new    ;}
	.st5{opacity:0.2;fill:#FFFFFF;enable-background:new    ;}
	.st6{fill:url(#XMLID_7_);}
	.st7{fill:url(#XMLID_34_);}
	.st8{fill:#4285F4;}
	.st9{fill:#DB4437;}
	.st10{opacity:0.2;fill:#1A237E;enable-background:new    ;}
	.st11{opacity:0.2;fill:#3E2723;enable-background:new    ;}
	.st12{fill:url(#XMLID_35_);}
	.st13{fill:#FFFFFF;}
</style>
<g id="XMLID_2_">
	<g id="XMLID_3_">
		<g id="XMLID_4_">
			<path id="XMLID_33_" class="st0" d="M78.7,58L45.1,0H0.3l37,64l-37,64h44.8l33.5-58C80.8,66.3,80.8,61.7,78.7,58z"/>
			<path id="XMLID_32_" class="st1" d="M59.4,102.3L48.8,83.9L23.3,128h21.8l14.6-25.2L59.4,102.3z"/>
			<path id="XMLID_31_" class="st0" d="M78.7,58L45.1,0H0.3l37,64l-37,64h44.8l33.5-58C80.8,66.3,80.8,61.7,78.7,58z"/>
			<path id="XMLID_30_" class="st2" d="M37.3,64l11.5,19.9L23.3,128h-23L37.3,64z"/>
			<path id="XMLID_29_" class="st0" d="M78.7,58L45.1,0H0.3l37,64l-37,64h44.8l33.5-58C80.8,66.3,80.8,61.7,78.7,58z"/>
			<path id="XMLID_28_" class="st3" d="M45.1,127H23.8l-0.5,1h21.8l14.6-25.2l-0.3-0.5L45.1,127z"/>
			<path id="XMLID_27_" class="st0" d="M78.7,58L45.1,0H0.3l37,64l-37,64h44.8l33.5-58C80.8,66.3,80.8,61.7,78.7,58z"/>
			<path id="XMLID_26_" class="st4" d="M0.8,127l-0.5,1h23l0.5-1H0.8z"/>
			<path id="XMLID_25_" class="st0" d="M78.7,58L45.1,0H0.3l37,64l-37,64h44.8l33.5-58C80.8,66.3,80.8,61.7,78.7,58z"/>
			<path id="XMLID_24_" class="st5" d="M0.3,128h0.5l36.8-63.5L37.3,64L0.3,128z"/>
			<path id="XMLID_23_" class="st0" d="M78.7,58L45.1,0H0.3l37,64l-37,64h44.8l33.5-58C80.8,66.3,80.8,61.7,78.7,58z"/>
			
				<radialGradient id="XMLID_7_" cx="59.537" cy="-842.374" r="44.264" gradientTransform="matrix(1 0 0 -1 0 -740)" gradientUnits="userSpaceOnUse">
				<stop  offset="0" style="stop-color:#BF360C;stop-opacity:0.2"/>
				<stop  offset="1" style="stop-color:#BF360C;stop-opacity:2.000000e-02"/>
			</radialGradient>
			<path id="XMLID_22_" class="st6" d="M59.7,102.8L48.8,83.9l-2.7,4.6L59.7,102.8z"/>
			<path id="XMLID_21_" class="st0" d="M78.7,58L45.1,0H0.3l37,64l-37,64h44.8l33.5-58C80.8,66.3,80.8,61.7,78.7,58z"/>
			
				<radialGradient id="XMLID_34_" cx="59.411" cy="-842.654" r="44.623" gradientTransform="matrix(1 0 0 -1 0 -740)" gradientUnits="userSpaceOnUse">
				<stop  offset="0" style="stop-color:#263238;stop-opacity:0.2"/>
				<stop  offset="1" style="stop-color:#263238;stop-opacity:2.000000e-02"/>
			</radialGradient>
			<path id="XMLID_20_" class="st7" d="M46.1,88.5l2.7-4.6L37.3,64l-5.5,9.5L46.1,88.5z"/>
			<path id="XMLID_19_" class="st0" d="M78.7,58L45.1,0H0.3l37,64l-37,64h44.8l33.5-58C80.8,66.3,80.8,61.7,78.7,58z"/>
			<g id="XMLID_16_">
				<g id="XMLID_17_">
					<path id="XMLID_18_" class="st8" d="M23.3,0h-23l59.4,102.8l11.5-19.9L23.3,0z"/>
				</g>
			</g>
			<path id="XMLID_15_" class="st0" d="M78.7,58L45.1,0H0.3l37,64l-37,64h44.8l33.5-58C80.8,66.3,80.8,61.7,78.7,58z"/>
			<path id="XMLID_14_" class="st9" d="M78.7,70c2.1-3.7,2.1-8.3,0-12L45.1,0H23.3l47.9,82.9L78.7,70z"/>
			<path id="XMLID_13_" class="st0" d="M78.7,58L45.1,0H0.3l37,64l-37,64h44.8l33.5-58C80.8,66.3,80.8,61.7,78.7,58z"/>
			<path id="XMLID_12_" class="st10" d="M71.2,82.9l-0.3-0.5l-11.2,19.4L0.8,0H0.3l59.4,102.8L71.2,82.9z"/>
			<path id="XMLID_11_" class="st0" d="M78.7,58L45.1,0H0.3l37,64l-37,64h44.8l33.5-58C80.8,66.3,80.8,61.7,78.7,58z"/>
			<path id="XMLID_10_" class="st5" d="M45.1,1l33.5,58c1,1.7,1.5,3.6,1.6,5.5c0.1-2.2-0.4-4.5-1.6-6.5L45.1,0H0.3l0.6,1
				C0.9,1,45.1,1,45.1,1z"/>
			<path id="XMLID_9_" class="st0" d="M78.7,58L45.1,0H0.3l37,64l-37,64h44.8l33.5-58C80.8,66.3,80.8,61.7,78.7,58z"/>
			<path id="XMLID_8_" class="st11" d="M71.2,82.9L78.7,70c1.2-2,1.7-4.3,1.6-6.5c-0.1,1.9-0.6,3.8-1.6,5.5L71,82.4L71.2,82.9z"/>
			<path id="XMLID_6_" class="st0" d="M78.7,58L45.1,0H0.3l37,64l-37,64h44.8l33.5-58C80.8,66.3,80.8,61.7,78.7,58z"/>
			
				<radialGradient id="XMLID_35_" cx="-0.74" cy="-741" r="134.35" gradientTransform="matrix(1 0 0 -1 0 -740)" gradientUnits="userSpaceOnUse">
				<stop  offset="0" style="stop-color:#FFFFFF;stop-opacity:0.1"/>
				<stop  offset="1" style="stop-color:#FFFFFF;stop-opacity:0"/>
			</radialGradient>
			<path id="XMLID_5_" class="st12" d="M78.7,58L45.1,0H0.3l37,64l-37,64h44.8l33.5-58C80.8,66.3,80.8,61.7,78.7,58z"/>
		</g>
	</g>
</g>
<path class="st13" d="M176.6,33.2c0,7-2.1,12.6-6.2,16.7c-4.7,4.9-10.9,7.4-18.4,7.4c-7.2,0-13.4-2.5-18.4-7.5
	c-5.1-5-7.6-11.2-7.6-18.7s2.5-13.6,7.6-18.7c5.1-5,11.2-7.5,18.4-7.5c3.6,0,7,0.7,10.3,2.1s5.9,3.3,7.8,5.6l-4.4,4.4
	c-3.3-4-7.9-6-13.7-6c-5.3,0-9.8,1.9-13.7,5.6c-3.8,3.7-5.8,8.5-5.8,14.5c0,5.9,1.9,10.7,5.8,14.5c3.9,3.7,8.4,5.6,13.7,5.6
	c5.6,0,10.3-1.9,14-5.6c2.4-2.4,3.8-5.8,4.2-10.1H152v-6h24.3C176.4,30.7,176.6,32,176.6,33.2z M182.9,56.2V6.1h15.3
	c7.7,0,13.9,2.3,18.5,7c4.6,4.6,6.9,10.7,6.9,18.1s-2.3,13.5-6.9,18.1c-4.6,4.6-10.8,7-18.5,7h-15.3V56.2z M189.4,50h8.9
	c5.8,0,10.4-1.7,13.8-5c3.4-3.3,5.1-8,5.1-13.9s-1.7-10.6-5.1-13.9c-3.4-3.3-8-5-13.8-5h-8.9V50z M278.4,33.2c0,7-2.1,12.6-6.2,16.7
	c-4.7,4.9-10.9,7.4-18.4,7.4c-7.2,0-13.4-2.5-18.4-7.5c-5.1-5-7.6-11.2-7.6-18.7s2.5-13.6,7.6-18.7c5.1-5,11.2-7.5,18.4-7.5
	c3.6,0,7,0.7,10.3,2.1s5.9,3.3,7.8,5.6l-4.4,4.4c-3.3-4-7.9-6-13.7-6c-5.3,0-9.8,1.9-13.7,5.6c-3.8,3.7-5.8,8.5-5.8,14.5
	c0,5.9,1.9,10.7,5.8,14.5c3.9,3.7,8.4,5.6,13.7,5.6c5.6,0,10.3-1.9,14-5.6c2.4-2.4,3.8-5.8,4.2-10.1h-18.2v-6H278
	C278.2,30.7,278.4,32,278.4,33.2z M301.6,56.2V6.1h15.3c7.7,0,13.9,2.3,18.5,7c4.6,4.6,6.9,10.7,6.9,18.1s-2.3,13.5-6.9,18.1
	s-10.8,7-18.5,7h-15.3V56.2z M308,50h8.9c5.8,0,10.4-1.7,13.8-5s5.1-8,5.1-13.9s-1.7-10.6-5.1-13.9s-8-5-13.8-5H308V50z M363.4,57.3
	c-5.2,0-9.4-1.7-12.6-5.2s-4.9-7.8-4.9-13.1c0-5,1.6-9.3,4.7-12.9s7.2-5.4,12.1-5.4c5.1,0,9.2,1.7,12.2,5c3.1,3.3,4.6,7.7,4.6,13.3
	l-0.1,1.2h-27.1c0.2,3.5,1.3,6.2,3.5,8.2c2.1,2,4.6,3,7.5,3c4.6,0,7.7-2,9.4-5.9l5.7,2.4c-1.1,2.7-3,4.9-5.5,6.7
	C370.3,56.4,367.1,57.3,363.4,57.3L363.4,57.3z M372.6,34.9c-0.1-2-1-3.8-2.7-5.6c-1.7-1.8-4.1-2.7-7.4-2.7c-2.4,0-4.4,0.7-6.2,2.2
	c-1.8,1.5-3,3.5-3.6,6L372.6,34.9L372.6,34.9z M393,56.2l-13.9-34.3h7l10.1,26.6h0.1l10.2-26.6h6.9l-14,34.3
	C399.4,56.2,393,56.2,393,56.2z M423.7,56.2h-6.4V6.1h29.3v6.2h-22.8v16.5h20.6v6h-20.6v21.4L423.7,56.2z M466,57.3
	c-5.2,0-9.4-1.7-12.6-5.2s-4.9-7.8-4.9-13.1c0-5,1.6-9.3,4.7-12.9c3.2-3.6,7.2-5.4,12.1-5.4c5.1,0,9.2,1.7,12.2,5
	c3.1,3.3,4.6,7.7,4.6,13.3l-0.1,1.2h-27.1c0.2,3.5,1.3,6.2,3.5,8.2c2.1,2,4.6,3,7.5,3c4.6,0,7.7-2,9.4-5.9l5.7,2.4
	c-1.1,2.7-3,4.9-5.5,6.7C472.8,56.4,469.7,57.3,466,57.3L466,57.3z M475.2,34.9c-0.1-2-1-3.8-2.7-5.6c-1.7-1.8-4.1-2.7-7.4-2.7
	c-2.4,0-4.4,0.7-6.2,2.2c-1.8,1.5-3,3.5-3.6,6L475.2,34.9L475.2,34.9z M499.1,57.3c-3.8,0-7-0.9-9.5-2.8s-4.3-4.2-5.5-7l5.7-2.4
	c1.8,4.3,4.9,6.4,9.3,6.4c2,0,3.7-0.4,4.9-1.3c1.3-0.9,1.9-2.1,1.9-3.5c0-2.2-1.6-3.8-4.7-4.5l-6.9-1.7c-2.2-0.6-4.3-1.6-6.2-3.2
	c-2-1.6-2.9-3.7-2.9-6.3c0-3,1.3-5.5,4-7.4s5.9-2.8,9.6-2.8c3,0,5.7,0.7,8.1,2.1s4.1,3.3,5.1,5.9l-5.6,2.3c-1.3-3-3.9-4.6-7.8-4.6
	c-1.9,0-3.5,0.4-4.8,1.2c-1.3,0.8-2,1.9-2,3.2c0,2,1.5,3.3,4.5,4l6.8,1.6c3.2,0.7,5.6,2,7.1,3.9c1.5,1.8,2.3,3.9,2.3,6.2
	c0,3.1-1.3,5.6-3.8,7.7C506.4,56.3,503.1,57.3,499.1,57.3z M532,56.8c-3.6,0-6.3-1-8.2-2.9s-2.8-4.6-2.8-8.1v-18h-6v-5.9h6V11.4h6.4
	v10.5h8.4v5.9h-8.4v17.5c0,3.7,1.5,5.6,4.6,5.6c1.2,0,2.1-0.2,2.9-0.6l2.2,5.5C535.8,56.5,534.1,56.8,532,56.8L532,56.8z"/>
<g>
	<path class="st13" d="M132.3,102v19.7H126V73h16.6c4.2,0,7.8,1.4,10.7,4.2c3,2.8,4.5,6.2,4.5,10.3c0,4.1-1.5,7.6-4.5,10.3
		c-2.9,2.8-6.5,4.1-10.7,4.1L132.3,102L132.3,102z M132.3,79v17h10.5c2.5,0,4.6-0.8,6.2-2.5c1.7-1.7,2.5-3.7,2.5-6s-0.8-4.2-2.5-5.9
		c-1.6-1.7-3.7-2.6-6.2-2.6H132.3z"/>
	<path class="st13" d="M174.6,87.3c4.6,0,8.3,1.2,10.9,3.7c2.7,2.5,4,5.9,4,10.2v20.5h-6v-4.6h-0.3c-2.6,3.8-6,5.7-10.3,5.7
		c-3.7,0-6.7-1.1-9.2-3.3c-2.5-2.2-3.7-4.9-3.7-8.2c0-3.4,1.3-6.2,3.9-8.2c2.6-2,6.1-3.1,10.4-3.1c3.7,0,6.8,0.7,9.2,2v-1.4
		c0-2.2-0.9-4-2.6-5.5c-1.7-1.5-3.7-2.3-6.1-2.3c-3.5,0-6.3,1.5-8.3,4.4l-5.5-3.5C164.1,89.5,168.6,87.3,174.6,87.3z M166.5,111.5
		c0,1.6,0.7,3,2.1,4.1c1.4,1.1,3,1.6,4.9,1.6c2.6,0,5-1,7-2.9c2.1-1.9,3.1-4.2,3.1-6.9c-1.9-1.5-4.7-2.3-8.2-2.3
		c-2.5,0-4.7,0.6-6.4,1.8C167.3,108.2,166.5,109.7,166.5,111.5z"/>
	<path class="st13" d="M202.8,121.7h-6.3V88.4h6v5.4h0.3c0.6-1.8,1.9-3.3,3.9-4.5s3.9-1.9,5.8-1.9c1.8,0,3.4,0.3,4.6,0.8l-1.9,6.1
		c-0.8-0.3-2-0.5-3.7-0.5c-2.4,0-4.4,1-6.2,2.9c-1.7,1.9-2.6,4.1-2.6,6.7L202.8,121.7L202.8,121.7z"/>
	<path class="st13" d="M232.6,87.3c4.6,0,8.3,1.2,10.9,3.7c2.7,2.5,4,5.9,4,10.2v20.5h-6v-4.6h-0.3c-2.6,3.8-6,5.7-10.3,5.7
		c-3.7,0-6.7-1.1-9.2-3.3c-2.5-2.2-3.7-4.9-3.7-8.2c0-3.4,1.3-6.2,3.9-8.2c2.6-2,6.1-3.1,10.4-3.1c3.7,0,6.8,0.7,9.2,2v-1.4
		c0-2.2-0.9-4-2.6-5.5c-1.7-1.5-3.7-2.3-6.1-2.3c-3.5,0-6.3,1.5-8.3,4.4l-5.5-3.5C222.1,89.5,226.6,87.3,232.6,87.3z M224.5,111.5
		c0,1.6,0.7,3,2.1,4.1c1.4,1.1,3,1.6,4.9,1.6c2.6,0,5-1,7-2.9c2.1-1.9,3.1-4.2,3.1-6.9c-1.9-1.5-4.7-2.3-8.2-2.3
		c-2.5,0-4.7,0.6-6.4,1.8C225.3,108.2,224.5,109.7,224.5,111.5z"/>
	<path class="st13" d="M254.6,88.4h6V93h0.3c1-1.6,2.4-3,4.4-4.1s4-1.6,6.2-1.6c4.1,0,7.2,1.2,9.4,3.5c2.2,2.3,3.3,5.7,3.3,10v20.9
		h-6.3v-20.5c-0.1-5.4-2.9-8.2-8.2-8.2c-2.5,0-4.6,1-6.3,3c-1.7,2-2.5,4.4-2.5,7.2v18.4h-6.3L254.6,88.4L254.6,88.4z"/>
	<path class="st13" d="M303.8,87.3c4.6,0,8.3,1.2,10.9,3.7c2.7,2.5,4,5.9,4,10.2v20.5h-6v-4.6h-0.3c-2.6,3.8-6,5.7-10.3,5.7
		c-3.7,0-6.7-1.1-9.2-3.3c-2.5-2.2-3.7-4.9-3.7-8.2c0-3.4,1.3-6.2,3.9-8.2s6.1-3.1,10.4-3.1c3.7,0,6.8,0.7,9.2,2v-1.4
		c0-2.2-0.9-4-2.6-5.5s-3.7-2.3-6.1-2.3c-3.5,0-6.3,1.5-8.3,4.4l-5.5-3.5C293.3,89.5,297.8,87.3,303.8,87.3z M295.7,111.5
		c0,1.6,0.7,3,2.1,4.1s3,1.6,4.9,1.6c2.6,0,5-1,7-2.9c2.1-1.9,3.1-4.2,3.1-6.9c-2-1.5-4.7-2.3-8.2-2.3c-2.5,0-4.7,0.6-6.4,1.8
		C296.5,108.2,295.7,109.7,295.7,111.5z M311.6,73l-4.9,8.7h-5.4l3.5-8.7H311.6z"/>
	<path class="st13" d="M369.3,115.7v6h-29.6v-6.3l12-12.2c4-4.1,6.8-7.2,8.4-9.3c1.5-2.1,2.3-4.2,2.3-6.5c0-2-0.8-3.8-2.4-5.2
		c-1.6-1.5-3.6-2.2-6.1-2.2c-2.1,0-4,0.6-5.5,1.9s-2.5,2.8-3,4.6l-5.7-2.3c0.9-2.9,2.7-5.3,5.2-7.2c2.6-2,5.6-3,9.1-3
		c4.2,0,7.7,1.3,10.5,3.9s4.2,5.8,4.2,9.5c0,4.5-2.5,9.3-7.4,14.6l-13.6,13.7H369.3z"/>
	<path class="st13" d="M375.3,98.5c0-7.1,1.7-12.9,5.2-17.5s8-6.9,13.5-6.9s10,2.3,13.5,6.9s5.2,10.4,5.2,17.4s-1.7,12.8-5.2,17.5
		c-3.5,4.6-8,6.9-13.5,6.9s-10-2.3-13.5-6.9S375.3,105.4,375.3,98.5z M406.3,98.5c0-5.3-1.1-9.7-3.4-13.2c-2.2-3.4-5.2-5.2-8.9-5.2
		c-3.7,0-6.7,1.7-8.9,5.2c-2.3,3.4-3.4,7.8-3.4,13.2c0,5.3,1.1,9.8,3.4,13.3c2.2,3.4,5.2,5.1,8.9,5.1c3.7,0,6.7-1.7,8.9-5.2
		C405.2,108.2,406.3,103.8,406.3,98.5z"/>
	<path class="st13" d="M435.4,75.2v46.5h-6.3V83l-9,3.9l-2.4-5.3l13.7-6.4H435.4z"/>
	<path class="st13" d="M475.4,108.9c0,4-1.5,7.3-4.6,9.9c-3.1,2.7-6.8,4-11.2,4c-4.4,0-8.1-1.3-11.2-4c-3-2.6-4.6-5.9-4.6-9.9
		c0-2.4,0.7-4.7,2-6.7s3.2-3.6,5.6-4.8v-0.3c-1.8-1.2-3.3-2.6-4.4-4.4c-1.1-1.7-1.7-3.5-1.7-5.4c0-3.8,1.3-6.9,4-9.5
		c2.6-2.5,6-3.7,10.2-3.7s7.6,1.2,10.2,3.7c2.7,2.5,4,5.7,4,9.5c0,1.9-0.6,3.7-1.7,5.4c-1.1,1.7-2.6,3.2-4.4,4.4v0.3
		c2.4,1.2,4.3,2.8,5.6,4.8C474.7,104.2,475.4,106.4,475.4,108.9z M450.2,108.5c0,1.2,0.2,2.3,0.7,3.3s1.1,1.9,2,2.6s1.8,1.3,3,1.7
		c1.1,0.4,2.4,0.6,3.7,0.6s2.6-0.2,3.7-0.6s2.1-1,3-1.7c0.8-0.7,1.5-1.6,2-2.6s0.7-2.1,0.7-3.3c0-2.4-0.9-4.3-2.7-5.8
		c-1.8-1.6-4-2.4-6.7-2.4c-2.6,0-4.9,0.8-6.7,2.4C451.1,104.3,450.2,106.2,450.2,108.5z M451.8,87.2c0,2.2,0.7,3.9,2.2,5.3
		c1.5,1.3,3.3,2,5.6,2c2.3,0,4.2-0.7,5.6-2c1.5-1.3,2.2-3.1,2.2-5.3c0-2.2-0.7-3.9-2.2-5.2c-1.5-1.3-3.3-1.9-5.6-1.9
		c-2.3,0-4.2,0.6-5.6,1.9C452.5,83.3,451.8,85,451.8,87.2z"/>
</g>
</svg>
